<svg width="48" height="19" viewBox="0 0 48 19" fill="none" xmlns="http://www.w3.org/2000/svg">
<path d="M0.686539 4.75742L6.12078 3.98953C7.11167 3.38721 8.13999 2.84802 9.20021 2.37485C12.7015 0.805586 16.5016 -0.00417119 20.3457 1.61573e-05H21.2897C25.8262 0.00323711 30.29 1.12962 34.2744 3.27641L37.0169 4.75677C40.2272 4.79253 43.3757 5.63739 46.1647 7.21053C47.2982 7.85376 47.998 9.04713 48 10.3397V15.0401C48 15.4775 47.6419 15.8318 47.1999 15.8318H44.5137C43.64 18.2981 40.9111 19.5968 38.4186 18.7323C37.0466 18.2566 35.9681 17.1892 35.4873 15.8318H14.1136C13.2399 18.2981 10.5111 19.5968 8.01857 18.7323C6.64682 18.2566 5.56805 17.1892 5.08725 15.8318H4.80014C4.69826 15.8318 4.59734 15.8128 4.50262 15.7755L1.91147 14.7467C0.753922 14.2932 -0.00421524 13.1845 1.52588e-05 11.9531V5.54109C1.52588e-05 5.14748 0.29266 4.81346 0.686539 4.75742ZM36.8649 14.882C37.2188 16.5952 38.9092 17.7003 40.6406 17.3502C42.3724 17.0001 43.4893 15.3274 43.1354 13.6139C42.7813 11.9006 41.0908 10.7955 39.3594 11.1456C37.8695 11.4468 36.7998 12.7439 36.8001 14.2487C36.8001 14.4613 36.8219 14.6736 36.8649 14.882ZM22.4001 14.2487H35.2002C35.2002 11.6255 37.349 9.49904 40 9.49904C42.651 9.49904 44.8001 11.6255 44.8001 14.2487H46.4001V10.3397C46.3991 9.61467 46.0065 8.94503 45.3704 8.58492C42.7598 7.11003 39.806 6.33377 36.8001 6.33281H22.4001V14.2487ZM22.4001 4.74969H33.6624L33.5081 4.66626C30.0879 2.82708 26.2887 1.78444 22.4001 1.61792V4.74969ZM20.8001 1.58313H20.3473C17.1234 1.57959 13.9287 2.18514 10.9343 3.36756L12.3311 4.74969H20.8001V1.58313ZM6.46486 14.882C6.8187 16.5952 8.50913 17.7003 10.2409 17.3502C11.9723 17.0001 13.0892 15.3274 12.7354 13.6139C12.3815 11.9006 10.6908 10.7955 8.95932 11.1456C7.46941 11.4468 6.39975 12.7439 6.40008 14.2487C6.40008 14.4613 6.42189 14.6736 6.46486 14.882ZM1.59995 7.1242H4.00002V8.70764H1.59995V11.9531C1.598 12.5364 1.95737 13.0615 2.50555 13.2756L4.80014 14.1875C4.80014 14.1147 4.80959 14.0426 4.81447 13.9698C4.81935 13.897 4.82098 13.8116 4.82879 13.7324C4.83693 13.6531 4.85288 13.5739 4.86557 13.495C4.87859 13.4158 4.88803 13.3365 4.90398 13.2647C4.91994 13.1925 4.94337 13.1127 4.96421 13.0373C4.98504 12.9622 5.00099 12.8862 5.02508 12.8125C5.04884 12.739 5.07781 12.6685 5.10483 12.5963C5.13218 12.5245 5.15691 12.4501 5.18491 12.3786C5.21291 12.3074 5.25066 12.2427 5.28419 12.1754C5.31772 12.108 5.3506 12.0343 5.38803 11.9663C5.4258 11.8984 5.46811 11.8404 5.50425 11.7772C5.54005 11.7138 5.584 11.6416 5.62957 11.5769C5.67547 11.5118 5.71779 11.4606 5.76173 11.402C5.80568 11.3434 5.85548 11.2744 5.90659 11.2136C5.9577 11.1527 6.00555 11.105 6.05535 11.0551C6.10483 11.0055 6.16017 10.9382 6.21518 10.8828C6.27052 10.8274 6.32488 10.7836 6.3799 10.7346C6.43523 10.6857 6.49448 10.6277 6.55535 10.5761C6.6159 10.5249 6.67775 10.4853 6.7383 10.4402C6.79917 10.3951 6.86004 10.3468 6.92384 10.3046C6.98797 10.2627 7.05991 10.2257 7.12859 10.1812C7.19761 10.1368 7.25359 10.102 7.31837 10.0682C7.38315 10.034 7.46388 9.99829 7.53745 9.96351C7.61102 9.92872 7.66863 9.8978 7.73667 9.86945C7.8047 9.84079 7.89682 9.81083 7.97657 9.78249C8.05665 9.75382 8.10874 9.73159 8.17677 9.71034C8.26792 9.68264 8.36134 9.66266 8.45444 9.6398C8.51531 9.62562 8.57358 9.60662 8.63511 9.59406C8.73341 9.57409 8.83432 9.56314 8.93426 9.54864C8.9935 9.54091 9.05014 9.52803 9.10939 9.52255C9.26954 9.50677 9.42937 9.49807 9.59734 9.49807C12.2474 9.50065 14.3949 11.6255 14.3975 14.2477H20.7998V6.33248H12C11.7878 6.33248 11.5843 6.24906 11.4346 6.10057L9.36004 4.04783C8.48927 4.45787 7.64259 4.91621 6.82391 5.42062C6.72951 5.47892 6.62404 5.51725 6.51369 5.53303L1.59995 6.22716V7.1242Z" fill="black"/>
</svg>
