<?xml version="1.0" encoding="UTF-8"?>
<svg width="77px" height="77px" viewBox="0 0 77 77" version="1.1" xmlns="http://www.w3.org/2000/svg" xmlns:xlink="http://www.w3.org/1999/xlink">
    <!-- Generator: Sketch 63.1 (92452) - https://sketch.com -->
    <title>Steering Wheel</title>
    <desc>Created with Sketch.</desc>
    <g id="Exploring" stroke="none" stroke-width="1" fill="none" fill-rule="evenodd">
        <g id="Empty-State" transform="translate(-149.000000, -307.000000)" fill-rule="nonzero">
            <g id="Steering-Wheel" transform="translate(149.000000, 307.000000)">
                <path d="M68.5465116,31.744186 L57.122093,31.744186 L55.0581395,28.7790698 L43.6918605,26.744186 C43.1686047,26.6569767 42.6162791,26.5988372 42.0639535,26.5988372 L34.7674419,26.5988372 C34.3895349,26.5988372 34.0406977,26.627907 33.6627907,26.6569767 C27.8488372,27.3837209 22.0930233,28.7790698 22.0930233,28.7790698 L20.0290698,31.744186 L8.60465116,31.744186 L3.86627907,45.4069767 C3.86627907,45.4069767 17.4127907,48.8662791 19.7383721,50.1453488 C23.75,52.3837209 30.2616279,72.8488372 30.2616279,72.8488372 L46.8895349,72.8488372 C46.8895349,72.8488372 53.4302326,52.3546512 57.4127907,50.1453488 C59.7383721,48.8662791 73.2848837,45.4069767 73.2848837,45.4069767 L68.5465116,31.744186 Z" id="路径" fill="#7098CA"></path>
                <path d="M43.8662791,30.7848837 L32.8488372,30.7848837 C27.7325581,30.7848837 23.6046512,34.9127907 23.6046512,40.0290698 L23.6046512,40.0290698 C23.6046512,45.1453488 27.7325581,49.2732558 32.8488372,49.2732558 L43.8662791,49.2732558 C48.9825581,49.2732558 53.1104651,45.1453488 53.1104651,40.0290698 L53.1104651,40.0290698 C53.1104651,34.9127907 48.9534884,30.7848837 43.8662791,30.7848837 Z" id="路径" fill="#4973A6"></path>
                <path d="M31.9476744,69.244186 L25.9883721,50.6686047 C25.9883721,50.6686047 38.8662791,54.6511628 50.2616279,50.5232558 L45.3197674,69.4186047 C45.3488372,69.4186047 31.9476744,68.6918605 31.9476744,69.244186 Z" id="路径" fill="#4973A6"></path>
                <path d="M38.5465116,0.0872093023 C17.3255814,0.0872093023 0.145348837,17.2674419 0.145348837,38.4883721 C0.145348837,59.7093023 17.3255814,76.8895349 38.5465116,76.8895349 C59.7674419,76.8895349 76.9476744,59.7093023 76.9476744,38.4883721 C76.9476744,17.2674419 59.7674419,0.0872093023 38.5465116,0.0872093023 Z M38.5465116,68.0813953 C22.1802326,68.0813953 8.9244186,54.8255814 8.9244186,38.4593023 C8.9244186,22.0930233 22.1802326,8.8372093 38.5465116,8.8372093 C54.9127907,8.8372093 68.1686047,22.0930233 68.1686047,38.4593023 C68.1686047,54.8255814 54.9127907,68.0813953 38.5465116,68.0813953 Z" id="形状" fill="#406797"></path>
                <path d="M38.5465116,8.86627907 C49.2732558,8.86627907 58.6627907,14.5639535 63.8662791,23.1104651 L70.2034884,16.7732558 C63.2848837,6.68604651 51.6860465,0.0872093023 38.5465116,0.0872093023 C25.4069767,0.0872093023 13.8081395,6.68604651 6.88953488,16.7732558 L13.2267442,23.1104651 C18.4302326,14.5639535 27.8197674,8.86627907 38.5465116,8.86627907 Z" id="路径" fill="#7098CA"></path>
            </g>
        </g>
    </g>
</svg>